# xmcd
#
# Track frame offsets:
#	150
#	14174
#	27725
#	42044
#	57173
#	72502
#	87819
#	100638
#	111559
#	123608
#	135695
#	146756
#	158333
#	171502
#	183933
#	196140
#	208859
#	220568
#	233154
#	245211
#	257985
#	270271
#	283133
#	295542
#
# Disc length: 4105 seconds
#
# Revision: 0
# Processed by: cddbd v1.4PL0 Copyright (c) Steve Scherf et al.
# Submitted via: dBpowerAMP V4.0
#
DISCID=70100718
DTITLE=Bob Wills and His Texas Playboys - Anthology
DYEAR=1900
DGENRE=Country
TTITLE0=Osage Stomp
TTITLE1=Spanish Two Step
TTITLE2=Maiden's Prayer
TTITLE3=Mexicali Rose
TTITLE4=Old Fashioned Love
TTITLE5=Sittin' On Top Of The World
TTITLE6=Steel Guitar Rag
TTITLE7=Blue Yodel #1
TTITLE8=Silver Bell
TTITLE9=That's What I Like 'Bout The South
TTITLE10=I'll See You In My Dreams
TTITLE11=The Waltz You Saved For Me
TTITLE12=Corrine Corrina
TTITLE13=Time Changes Everything
TTITLE14=Big Beaver
TTITLE15=Honey What You Gonna Do-
TTITLE16=I Found A Dream
TTITLE17=Take Me Back To Tulsa
TTITLE18=New San Antonio Rose
TTITLE19=I Knew The Moment I Lost You
TTITLE20=Twin Guitar Special
TTITLE21=Mississippi Delta Blues
TTITLE22=Roly Poly
TTITLE23=Brain Cloudy Blues
EXTD=
EXTT0=
EXTT1=
EXTT2=
EXTT3=
EXTT4=
EXTT5=
EXTT6=
EXTT7=
EXTT8=
EXTT9=
EXTT10=
EXTT11=
EXTT12=
EXTT13=
EXTT14=
EXTT15=
EXTT16=
EXTT17=
EXTT18=
EXTT19=
EXTT20=
EXTT21=
EXTT22=
EXTT23=
PLAYORDER=
